# xmcd
#
# Track frame offsets:
#	150
#	13004
#	26879
#	37880
#	50464
#	63045
#	74962
#	89105
#	102599
#	110909
#	124647
#	137778
#	150792
#	165158
#	178466
#	191184
#	203678
#	217678
#	241730
#	256061
#
# Disc length: 3591
#
# Revision: 2
# Processed by: cddbd v1.5.1PL0 Copyright (c) Steve Scherf et al.
# Submitted via: audiograbber 1.80.04
# Normalized: r1:DSETVAR1
#
DISCID=1a0e0514
DTITLE=Various Artist - The Vintage Blues Box [CD3)
DYEAR=1900
DGENRE=
TTITLE0=Robert Johnson - Come On In My Kitchen
TTITLE1=Big Joe Williams - Somebody's Been Borrowing That Stuff
TTITLE2=Blind Boy Fuller - Get Your Yas Yas Out
TTITLE3=Tampa Red - I Woder Where My Easy Rider's Gone
TTITLE4=Big Bill Broonzy - I Feel So Good
TTITLE5=Bukka White - Bukka's Jitterbug Swing
TTITLE6=Charley Patton - Shake It And Break It(But Don't Let It Fall Mama)
TTITLE7=Memphis Minnie - Ice Man(Come On Up)
TTITLE8=Leadbelly - Goodnight Irene
TTITLE9=Sonny Boy Williamson - Frigidaire Blues
TTITLE10=Skip James - How Long 'Buck'
TTITLE11=Big Bill Broonzy - When I Been Drinkin'
TTITLE12=Blind Willie Johnson - It's Nobody's Fault But Mine
TTITLE13=Bukka White - Black Train Blues
TTITLE14=Charley Patton - Stone Pony Blues
TTITLE15=Sleepy John Estes - Drop Down Mama
TTITLE16=Blind Lemon Jefferson - Bakershop Blues
TTITLE17=Son House - Delta Blues
TTITLE18=Leadbelly - Alberta
TTITLE19=Sonny Boy Williamson - Sugar Mama Blues
EXTD=
EXTT0=
EXTT1=
EXTT2=
EXTT3=
EXTT4=
EXTT5=
EXTT6=
EXTT7=
EXTT8=
EXTT9=
EXTT10=
EXTT11=
EXTT12=
EXTT13=
EXTT14=
EXTT15=
EXTT16=
EXTT17=
EXTT18=
EXTT19=
PLAYORDER=
